<?xml version="1.0" standalone="no"?>
<!DOCTYPE svg PUBLIC "-//W3C//DTD SVG 20010904//EN"
 "http://www.w3.org/TR/2001/REC-SVG-20010904/DTD/svg10.dtd">
<svg version="1.0" xmlns="http://www.w3.org/2000/svg"
 width="972.000000pt" height="972.000000pt" viewBox="0 0 972.000000 972.000000"
 preserveAspectRatio="xMidYMid meet">
<metadata>
Created by potrace 1.11, written by Peter Selinger 2001-2013
</metadata>
<g transform="translate(0.000000,972.000000) scale(0.100000,-0.100000)"
fill="#000000" stroke="none">
<path d="M6108 8015 c-2 -1 -41 -5 -88 -8 -110 -8 -166 -15 -270 -34 -47 -8
-98 -17 -115 -20 -41 -7 -60 -11 -60 -13 0 -1 -9 -3 -21 -5 -99 -19 -373 -109
-489 -161 -22 -10 -42 -18 -45 -19 -17 -4 -190 -91 -212 -107 -16 -11 -28 -16
-28 -13 0 3 -12 -2 -27 -12 -16 -10 -40 -25 -55 -33 -16 -7 -28 -17 -28 -22 0
-4 -5 -8 -11 -8 -23 0 -279 -177 -279 -192 0 -5 -4 -8 -10 -8 -5 0 -19 -8 -31
-17 -11 -10 -30 -26 -42 -36 -113 -94 -269 -245 -353 -343 -27 -31 -53 -62
-59 -68 -58 -66 -235 -308 -235 -322 0 -3 -13 -24 -29 -47 -46 -69 -135 -237
-194 -367 -25 -55 -91 -221 -92 -230 -1 -3 -7 -22 -14 -43 -10 -29 -17 -37
-30 -32 -27 11 -203 53 -251 60 -24 4 -47 8 -50 10 -11 7 -185 18 -295 18
-102 1 -243 -7 -290 -17 -11 -2 -40 -7 -65 -11 -60 -10 -64 -11 -145 -29 -82
-19 -274 -84 -292 -98 -7 -6 -13 -8 -13 -4 0 3 -16 -3 -35 -14 -20 -11 -41
-20 -47 -20 -6 0 -19 -7 -29 -16 -9 -8 -24 -16 -32 -18 -8 -1 -26 -9 -40 -19
-15 -9 -29 -17 -32 -17 -12 0 -186 -117 -265 -179 -77 -60 -238 -213 -300
-287 -47 -55 -120 -154 -120 -163 0 -5 -4 -11 -8 -13 -13 -5 -94 -142 -144
-244 -80 -160 -151 -364 -173 -499 -2 -11 -4 -20 -5 -20 -1 0 -3 -15 -6 -34
-2 -19 -6 -46 -9 -60 -24 -122 -25 -487 -2 -596 3 -11 8 -42 12 -70 4 -27 16
-84 26 -125 11 -41 21 -79 22 -85 2 -5 6 -16 10 -22 5 -7 6 -13 2 -13 -3 0 1
-16 9 -35 8 -19 12 -35 9 -35 -3 0 -1 -6 4 -12 6 -7 20 -40 32 -73 39 -104
118 -257 188 -363 24 -35 43 -67 43 -72 0 -4 3 -10 8 -12 4 -1 41 -46 84 -98
95 -118 226 -246 338 -330 18 -14 39 -31 46 -37 7 -7 15 -13 19 -13 8 0 69
-43 73 -52 2 -5 8 -8 14 -8 5 0 28 -13 51 -28 49 -33 228 -120 307 -150 30
-11 64 -23 75 -28 11 -4 25 -8 30 -10 87 -26 131 -38 185 -50 115 -25 129 -28
255 -43 70 -9 383 -7 440 3 17 2 50 7 75 11 52 7 228 44 250 52 8 3 23 8 33
10 19 3 175 61 240 88 20 8 40 15 43 14 4 0 10 3 13 8 3 5 24 17 46 28 149 68
368 227 518 376 l108 106 57 -46 c31 -25 63 -50 70 -56 7 -5 22 -18 33 -27 10
-10 21 -18 24 -18 3 0 33 -21 67 -46 128 -94 397 -243 558 -308 36 -15 75 -31
88 -36 45 -20 68 -28 127 -48 150 -49 345 -101 400 -106 17 -2 41 -6 55 -9 14
-4 41 -9 60 -12 19 -2 46 -7 59 -10 14 -2 63 -7 110 -11 47 -3 89 -8 93 -10 8
-5 377 -5 433 0 135 12 225 23 270 31 50 9 99 18 110 21 6 1 25 5 42 8 44 8
177 42 238 60 28 8 67 20 89 26 165 49 448 179 634 292 123 74 175 109 180
121 2 4 8 7 13 7 11 0 166 117 210 160 9 8 37 33 63 55 45 38 208 200 258 256
52 59 75 86 103 124 17 21 37 46 45 55 22 22 194 278 215 320 10 19 21 37 24
40 12 9 138 270 179 370 21 52 51 136 67 185 15 50 32 99 36 110 5 11 10 31
13 45 6 38 18 84 24 95 4 5 7 16 8 25 1 8 4 26 7 40 14 67 37 200 42 240 3 25
7 55 9 66 28 145 24 622 -8 789 -3 17 -8 53 -11 81 -3 28 -10 65 -15 83 -5 17
-9 32 -8 34 1 15 -27 136 -58 242 -8 28 -16 57 -18 65 -2 8 -11 35 -20 60 -9
25 -18 52 -20 60 -6 22 -36 99 -57 146 -11 22 -19 44 -19 48 0 17 -137 279
-198 379 -37 60 -71 117 -77 128 -5 10 -13 19 -17 19 -5 0 -8 6 -8 14 0 8 -3
16 -7 18 -5 2 -42 48 -84 103 -104 136 -125 161 -269 305 -167 167 -262 247
-440 372 -153 107 -392 236 -595 321 -66 28 -292 105 -328 111 -12 3 -22 5
-22 6 0 1 -7 3 -15 5 -8 1 -42 10 -75 18 -33 9 -112 25 -175 36 -106 18 -154
25 -265 37 -46 6 -442 13 -447 9z m360 -610 c26 -3 72 -7 102 -10 66 -7 291
-50 340 -66 19 -6 42 -12 50 -14 8 -1 22 -5 30 -8 8 -3 42 -14 75 -25 738
-245 1318 -823 1582 -1577 13 -38 26 -77 28 -85 37 -139 47 -179 50 -197 12
-57 16 -81 21 -118 3 -22 7 -51 10 -65 14 -80 19 -156 19 -340 0 -235 -14
-385 -50 -530 -3 -14 -9 -38 -12 -55 -7 -39 -71 -254 -83 -280 -5 -11 -21 -49
-34 -85 -67 -180 -264 -518 -371 -634 -11 -12 -36 -42 -56 -67 -73 -89 -224
-234 -334 -321 -33 -27 -65 -52 -71 -57 -65 -53 -227 -153 -359 -220 -109 -56
-267 -125 -310 -136 -5 -1 -17 -5 -25 -8 -22 -9 -220 -64 -255 -71 -16 -3 -52
-11 -80 -16 -27 -6 -66 -13 -85 -16 -19 -3 -45 -7 -58 -9 -144 -24 -539 -24
-662 0 -13 3 -42 7 -65 11 -284 41 -631 166 -883 319 -139 83 -145 88 -243
162 -170 130 -166 126 -151 165 7 18 15 38 16 43 2 6 8 23 14 38 7 16 12 30
12 32 0 2 5 16 12 32 6 15 12 30 12 33 10 44 31 100 37 100 5 0 26 -17 47 -38
30 -31 130 -118 198 -172 25 -19 160 -108 184 -120 14 -7 27 -16 30 -20 20
-27 382 -185 470 -205 8 -2 49 -13 90 -24 76 -21 91 -24 190 -42 101 -18 174
-23 350 -23 215 -1 313 8 460 39 14 3 34 7 45 10 263 55 596 207 824 377 106
79 259 220 357 329 99 111 241 328 321 489 51 103 121 294 148 400 20 80 35
152 40 185 4 22 8 51 11 65 18 105 24 390 11 525 -12 117 -22 179 -47 286 -6
26 -13 53 -14 60 -24 129 -169 471 -247 586 -16 23 -29 44 -29 48 0 10 -137
193 -194 259 -118 136 -285 284 -434 384 -48 32 -94 62 -102 65 -8 4 -31 17
-50 29 -148 90 -437 201 -620 237 -134 26 -126 25 -240 37 -134 15 -454 8
-551 -11 -13 -3 -37 -7 -54 -10 -46 -7 -86 -15 -125 -25 -19 -5 -46 -11 -60
-14 -33 -6 -206 -64 -245 -81 -16 -7 -50 -21 -75 -31 -70 -28 -227 -112 -316
-170 -194 -126 -350 -264 -487 -429 -37 -44 -73 -87 -81 -95 -54 -59 -214
-337 -273 -475 -22 -51 -72 -188 -78 -215 -14 -52 -38 -136 -41 -142 -3 -4
-38 20 -78 55 -84 72 -134 110 -150 116 -35 13 -36 28 -10 108 90 272 217 512
398 753 79 107 329 362 421 430 33 25 66 50 73 57 7 7 26 20 42 30 17 9 30 21
30 25 0 4 4 8 9 8 5 0 38 19 73 42 63 42 318 178 341 182 7 1 28 9 47 18 85
40 385 132 470 144 8 1 29 4 45 8 92 17 154 24 280 32 55 4 101 7 102 8 4 3
227 -4 271 -9z m-3 -409 c28 -3 70 -8 95 -11 25 -2 59 -8 75 -11 17 -4 39 -8
50 -9 66 -9 307 -83 394 -122 20 -9 38 -17 41 -17 15 -4 129 -63 155 -80 17
-12 31 -20 33 -18 2 2 24 -10 97 -57 188 -119 418 -334 548 -511 42 -58 81
-110 87 -117 5 -7 10 -16 10 -21 0 -4 11 -23 24 -40 63 -86 221 -458 232 -547
1 -11 3 -20 4 -20 1 0 3 -7 5 -15 2 -8 8 -36 14 -62 49 -210 58 -490 26 -743
-4 -33 -10 -63 -30 -155 -7 -33 -19 -86 -20 -90 -1 -3 -7 -25 -14 -50 -22 -83
-104 -284 -154 -380 -104 -199 -248 -392 -408 -545 -86 -82 -221 -195 -233
-195 -4 0 -17 -9 -29 -20 -12 -12 -33 -27 -47 -34 -14 -7 -63 -36 -110 -65
-153 -92 -430 -200 -579 -226 -19 -3 -37 -8 -41 -10 -3 -2 -29 -7 -56 -11 -27
-3 -58 -8 -69 -11 -75 -17 -352 -23 -505 -11 -465 37 -947 265 -1291 610 -55
56 -57 59 -49 95 32 145 45 423 27 573 -17 143 -23 184 -37 245 -6 28 -14 61
-16 74 -3 14 -7 29 -10 33 -3 5 -8 24 -11 41 -3 18 -8 37 -12 42 -4 6 -13 30
-21 55 -7 25 -17 49 -22 54 -4 6 -8 16 -8 23 0 20 -106 237 -146 300 -19 29
-34 58 -34 63 0 6 -4 10 -10 10 -5 0 -10 4 -10 10 0 5 -6 18 -14 27 -8 10 -38
50 -67 88 -29 39 -58 75 -64 81 -5 6 -25 27 -43 47 -35 40 -34 31 -6 150 2 9
6 27 9 40 7 34 56 177 76 222 30 68 58 135 60 143 8 23 127 224 160 269 22 29
39 55 39 58 0 4 6 12 13 19 6 7 24 29 39 48 80 101 236 258 328 328 25 19 47
38 50 41 3 4 50 36 106 73 160 104 335 190 503 246 66 22 248 68 298 75 88 13
113 16 157 20 27 3 50 6 52 8 5 5 305 -1 359 -7z m-3600 -1160 c39 -4 81 -9
95 -11 14 -2 43 -6 65 -10 58 -8 217 -46 236 -56 14 -7 15 -15 7 -46 -19 -77
-47 -199 -52 -230 -3 -18 -8 -48 -11 -65 -3 -18 -7 -44 -10 -58 -3 -14 -7 -50
-11 -80 -3 -30 -8 -66 -10 -80 -2 -14 -6 -102 -9 -197 -3 -95 -5 -176 -6 -180
-1 -4 -1 -10 0 -13 1 -3 4 -43 6 -90 4 -96 11 -163 30 -293 4 -28 33 -185 39
-212 2 -5 6 -28 10 -50 4 -22 10 -47 14 -55 3 -8 6 -19 7 -25 0 -5 18 -64 40
-130 21 -66 40 -124 41 -130 1 -5 19 -50 39 -100 157 -384 389 -737 673 -1024
129 -132 129 -104 2 -230 -236 -233 -550 -410 -880 -496 -71 -19 -74 -19 -140
-30 -25 -4 -52 -9 -60 -10 -148 -27 -468 -25 -613 4 -29 6 -61 12 -72 14 -132
23 -413 120 -485 167 -8 6 -25 14 -37 20 -36 15 -178 103 -181 112 -2 4 -8 8
-13 8 -10 0 -82 53 -159 118 -104 87 -231 225 -338 367 -20 26 -99 156 -125
205 -29 55 -107 226 -112 245 -1 6 -5 17 -8 25 -37 92 -90 325 -103 455 -10
97 -11 307 -2 385 11 97 17 142 24 170 3 14 7 39 10 55 7 40 43 171 59 215 63
168 99 251 126 291 10 14 16 28 13 31 -2 3 2 11 11 18 8 7 15 17 15 22 0 19
152 237 205 293 182 196 321 314 475 403 25 15 47 30 48 34 2 4 9 8 15 8 6 0
54 22 106 49 53 27 101 50 106 51 6 1 24 8 41 15 25 10 98 34 159 51 58 17
126 34 150 38 17 3 44 7 60 10 62 12 92 16 165 22 41 3 76 7 77 8 4 3 205 -3
268 -8z m1050 -420 c144 -118 167 -144 160 -181 -15 -91 -20 -179 -19 -350 0
-198 7 -283 30 -388 3 -16 7 -38 9 -50 2 -12 9 -42 15 -67 7 -25 14 -55 16
-67 15 -79 105 -306 172 -438 60 -117 202 -334 224 -343 5 -2 8 -8 8 -12 0 -5
16 -26 35 -47 40 -42 40 -56 10 -153 -21 -68 -23 -74 -22 -80 0 -3 -6 -16 -13
-30 -8 -14 -15 -29 -16 -35 -1 -5 -9 -25 -16 -43 l-15 -33 -49 52 c-27 28 -56
59 -66 68 -16 16 -91 108 -138 171 -14 18 -31 39 -37 46 -7 7 -13 15 -13 18 0
3 -24 43 -54 88 -104 160 -200 361 -265 555 -30 91 -69 234 -77 283 -2 14 -7
36 -10 50 -3 13 -8 40 -10 60 -2 19 -7 46 -9 60 -12 63 -19 189 -19 345 0 174
7 278 28 405 12 71 12 72 26 133 l13 57 26 -16 c14 -10 48 -36 76 -58z m315
-317 c0 -3 12 -19 26 -35 14 -16 37 -47 51 -69 14 -22 29 -42 32 -45 7 -6 17
-22 78 -133 85 -153 165 -373 198 -542 5 -22 10 -47 12 -55 23 -103 34 -388
19 -525 -9 -86 -15 -127 -19 -131 -2 -2 -24 24 -50 59 -26 34 -51 67 -57 74
-5 7 -10 14 -10 17 0 2 -19 33 -42 67 -72 110 -213 425 -233 522 -2 10 -7 27
-10 37 -3 10 -8 27 -10 37 -2 10 -11 49 -20 87 -9 37 -14 71 -11 73 3 3 1 13
-4 23 -5 9 -12 48 -16 86 -9 82 -10 436 -2 479 4 17 7 34 7 40 1 9 60 -55 61
-66z"/>
<path d="M5693 4762 l-422 -427 199 -200 c109 -110 300 -302 423 -426 l223
-226 55 -2 c30 -2 60 -3 67 -2 18 1 27 2 162 1 192 0 239 0 253 -1 6 0 37 0
67 1 30 1 60 1 65 0 6 -1 39 -2 74 -1 l64 1 -281 282 c-154 155 -279 284 -277
286 2 2 256 4 564 3 l561 0 0 284 0 285 -52 0 c-29 0 -285 1 -567 1 l-515 0
101 102 c328 330 453 457 453 462 0 3 -179 5 -397 4 l-398 -1 -422 -426z"/>
<path d="M1806 4840 c-26 -5 -20 -13 133 -165 89 -87 161 -162 161 -165 0 -3
-143 -5 -317 -5 -175 0 -325 -1 -334 -3 -13 -3 -15 -11 -9 -43 4 -21 4 -39 -1
-39 -4 0 -4 -13 1 -30 5 -19 5 -30 -1 -30 -6 0 -7 -5 -4 -10 4 -6 6 -34 6 -63
-2 -86 -1 -111 4 -115 2 -3 151 -5 330 -5 179 -1 325 -3 325 -6 0 -4 -57 -63
-127 -133 -71 -69 -144 -142 -162 -162 l-35 -36 235 0 235 0 247 248 c136 136
248 250 249 255 3 8 -489 507 -501 507 -66 4 -415 4 -435 0z"/>
</g>
</svg>
